<svg width="40" height="37" viewBox="0 0 40 37" fill="none" xmlns="http://www.w3.org/2000/svg">
<g id="Group 1">
<path id="Vector" d="M8.18078 29.6534H17.999V32.9261H11.4535C11.0195 32.9261 10.6033 33.0985 10.2964 33.4054C9.98955 33.7122 9.81714 34.1285 9.81714 34.5625C9.81714 34.9964 9.98955 35.4127 10.2964 35.7195C10.6033 36.0264 11.0195 36.1988 11.4535 36.1988H27.8171C28.2511 36.1988 28.6673 36.0264 28.9742 35.7195C29.2811 35.4127 29.4535 34.9964 29.4535 34.5625C29.4535 34.1285 29.2811 33.7122 28.9742 33.4054C28.6673 33.0985 28.2511 32.9261 27.8171 32.9261H21.2717V29.6534H31.0899C32.9753 29.651 34.8023 28.9987 36.2628 27.8064C37.7234 26.6141 38.7283 24.9547 39.1081 23.1079H0.162598C0.542392 24.9547 1.54726 26.6141 3.00782 27.8064C4.46839 28.9987 6.29535 29.651 8.18078 29.6534Z" fill="#FFFFFE"/>
<path id="Vector_2" d="M31.0909 0.19873H8.18182C6.01266 0.201329 3.93309 1.06417 2.39927 2.598C0.865443 4.13182 0.00259831 6.21139 0 8.38055L0 19.8351H39.2727V8.38055C39.2701 6.21139 38.4073 4.13182 36.8735 2.598C35.3396 1.06417 33.2601 0.201329 31.0909 0.19873Z" fill="#FFFFFE"/>
</g>
</svg>
