<svg width="1280" height="145" viewBox="0 0 1280 145" fill="none" xmlns="http://www.w3.org/2000/svg">
<path d="M1280.3 13.6304C1280.3 49.2622 1280 122.502 1280 145C1217.78 144.764 1164.06 144.155 1101.84 143.919L915.164 143.21L728.492 142.501L541.82 141.792L355.148 141.083L168.476 140.374C106.252 140.138 30.5163 139.771 -0.595815 139.653C-0.595815 139.653 -0.596899 64 -0.596104 32.5C-0.595309 0.999962 112.148 17.6999 174.308 32.6303C236.466 47.7843 306.04 77.3337 368.304 68.6306C430.567 59.9276 480.068 34.283 542.371 16.6406C604.673 -1.00183 666.897 -0.765379 729.109 2.43213C791.319 5.85314 853.518 11.6765 915.702 21.0198C977.887 30.028 1039.37 43.1304 1101.84 40.6304C1164.3 38.1304 1218.05 19.3723 1280.3 13.6304Z" fill="#ECAF23"/>
</svg>
