<svg width="24" height="37" viewBox="0 0 24 37" fill="none" xmlns="http://www.w3.org/2000/svg">
<g id="Group 2">
<path id="Vector" d="M16.5 0.19873H7.5C5.51161 0.201112 3.60534 0.992054 2.19933 2.39806C0.793323 3.80407 0.00238179 5.71034 0 7.69873V24.1987H24V7.69873C23.9976 5.71034 23.2067 3.80407 21.8007 2.39806C20.3947 0.992054 18.4884 0.201112 16.5 0.19873V0.19873Z" fill="#FFFFFE"/>
<path id="Vector_2" d="M0 28.6987C0.00238179 30.6871 0.793323 32.5934 2.19933 33.9994C3.60534 35.4054 5.51161 36.1963 7.5 36.1987H16.5C18.4884 36.1963 20.3947 35.4054 21.8007 33.9994C23.2067 32.5934 23.9976 30.6871 24 28.6987V27.1987H0V28.6987ZM12 30.1987C12.2967 30.1987 12.5867 30.2867 12.8334 30.4515C13.08 30.6163 13.2723 30.8506 13.3858 31.1247C13.4994 31.3988 13.5291 31.7004 13.4712 31.9914C13.4133 32.2823 13.2704 32.5496 13.0607 32.7594C12.8509 32.9692 12.5836 33.112 12.2926 33.1699C12.0017 33.2278 11.7001 33.1981 11.426 33.0845C11.1519 32.971 10.9176 32.7788 10.7528 32.5321C10.588 32.2854 10.5 31.9954 10.5 31.6987C10.5 31.3009 10.658 30.9194 10.9393 30.6381C11.2206 30.3568 11.6022 30.1987 12 30.1987Z" fill="#FFFFFE"/>
</g>
</svg>
