<svg width="1280" height="262" viewBox="0 0 1280 262" fill="none" xmlns="http://www.w3.org/2000/svg">
<path fill-rule="evenodd" clip-rule="evenodd" d="M1281 0.898438H0V221.07C0 243.179 17.9226 261.102 40.0312 261.102C62.1399 261.102 80.0625 243.179 80.0625 221.07C80.0625 198.962 97.9851 181.039 120.094 181.039C142.202 181.039 160.125 198.962 160.125 221.07C160.125 243.179 178.048 261.102 200.156 261.102C222.265 261.102 240.188 243.179 240.188 221.07C240.188 198.962 258.11 181.039 280.219 181.039C302.327 181.039 320.25 198.962 320.25 221.07C320.25 243.179 338.173 261.102 360.281 261.102C382.39 261.102 400.312 243.179 400.312 221.07C400.312 198.962 418.235 181.039 440.344 181.039C462.452 181.039 480.375 198.962 480.375 221.07C480.375 243.179 498.298 261.102 520.406 261.102C542.515 261.102 560.438 243.179 560.438 221.07C560.438 198.962 578.36 181.039 600.469 181.039C622.577 181.039 640.5 198.962 640.5 221.07C640.5 243.179 658.423 261.102 680.531 261.102C702.64 261.102 720.562 243.179 720.562 221.07C720.562 198.962 738.485 181.039 760.594 181.039C782.702 181.039 800.625 198.962 800.625 221.07C800.625 243.179 818.548 261.102 840.656 261.102C862.765 261.102 880.688 243.179 880.688 221.07C880.688 198.962 898.61 181.039 920.719 181.039C942.827 181.039 960.75 198.962 960.75 221.07C960.75 243.179 978.673 261.102 1000.78 261.102C1022.89 261.102 1040.81 243.179 1040.81 221.07C1040.81 198.962 1058.74 181.039 1080.84 181.039C1102.95 181.039 1120.88 198.962 1120.88 221.07C1120.88 243.179 1138.8 261.102 1160.91 261.102C1183.01 261.102 1200.94 243.179 1200.94 221.07C1200.94 198.962 1218.86 181.039 1240.97 181.039C1263.08 181.039 1281 198.962 1281 221.07V0.898438Z" fill="url(#paint0_linear_760_3996)"/>
<defs>
<linearGradient id="paint0_linear_760_3996" x1="1321.33" y1="123.893" x2="-255.779" y2="83.0434" gradientUnits="userSpaceOnUse">
<stop offset="0.0682974" stop-color="#4D194D"/>
<stop offset="1" stop-color="#212F45"/>
</linearGradient>
</defs>
</svg>
