<svg width="40" height="37" viewBox="0 0 40 37" fill="none" xmlns="http://www.w3.org/2000/svg">
<path id="Vector" d="M0 13.2896V28.0169C0.00260862 30.1861 0.868878 32.2656 2.40879 33.7995C3.9487 35.3333 6.03652 36.1961 8.21429 36.1987H31.2143C33.3921 36.1961 35.4799 35.3333 37.0198 33.7995C38.5597 32.2656 39.426 30.1861 39.4286 28.0169V13.2896H0ZM23 29.6533H9.85714C9.42143 29.6533 9.00356 29.4809 8.69547 29.174C8.38737 28.8671 8.21429 28.4509 8.21429 28.0169C8.21429 27.5829 8.38737 27.1667 8.69547 26.8598C9.00356 26.5529 9.42143 26.3805 9.85714 26.3805H23C23.4357 26.3805 23.8536 26.5529 24.1617 26.8598C24.4698 27.1667 24.6429 27.5829 24.6429 28.0169C24.6429 28.4509 24.4698 28.8671 24.1617 29.174C23.8536 29.4809 23.4357 29.6533 23 29.6533ZM29.5714 23.1078H9.85714C9.42143 23.1078 9.00356 22.9354 8.69547 22.6285C8.38737 22.3217 8.21429 21.9054 8.21429 21.4715C8.21429 21.0375 8.38737 20.6213 8.69547 20.3144C9.00356 20.0075 9.42143 19.8351 9.85714 19.8351H29.5714C30.0071 19.8351 30.425 20.0075 30.7331 20.3144C31.0412 20.6213 31.2143 21.0375 31.2143 21.4715C31.2143 21.9054 31.0412 22.3217 30.7331 22.6285C30.425 22.9354 30.0071 23.1078 29.5714 23.1078ZM39.4286 10.0169V8.38055C39.426 6.21139 38.5597 4.13182 37.0198 2.598C35.4799 1.06417 33.3921 0.201329 31.2143 0.19873H8.21429C6.03652 0.201329 3.9487 1.06417 2.40879 2.598C0.868878 4.13182 0.00260862 6.21139 0 8.38055L0 10.0169H39.4286ZM16.4286 3.47146C16.7535 3.47146 17.0711 3.56743 17.3413 3.74723C17.6115 3.92704 17.822 4.18261 17.9464 4.48161C18.0707 4.78062 18.1033 5.10964 18.0399 5.42706C17.9765 5.74448 17.82 6.03606 17.5902 6.2649C17.3605 6.49375 17.0678 6.6496 16.7491 6.71274C16.4304 6.77588 16.1001 6.74348 15.7999 6.61962C15.4997 6.49577 15.2431 6.28604 15.0626 6.01694C14.8821 5.74784 14.7857 5.43146 14.7857 5.10782C14.7857 4.67383 14.9588 4.25762 15.2669 3.95074C15.575 3.64386 15.9929 3.47146 16.4286 3.47146ZM11.5 3.47146C11.8249 3.47146 12.1426 3.56743 12.4127 3.74723C12.6829 3.92704 12.8935 4.18261 13.0178 4.48161C13.1421 4.78062 13.1747 5.10964 13.1113 5.42706C13.0479 5.74448 12.8914 6.03606 12.6617 6.2649C12.4319 6.49375 12.1392 6.6496 11.8205 6.71274C11.5018 6.77588 11.1715 6.74348 10.8713 6.61962C10.5711 6.49577 10.3145 6.28604 10.134 6.01694C9.9535 5.74784 9.85714 5.43146 9.85714 5.10782C9.85714 4.67383 10.0302 4.25762 10.3383 3.95074C10.6464 3.64386 11.0643 3.47146 11.5 3.47146ZM6.57143 3.47146C6.89636 3.47146 7.21398 3.56743 7.48415 3.74723C7.75432 3.92704 7.96489 4.18261 8.08923 4.48161C8.21358 4.78062 8.24611 5.10964 8.18272 5.42706C8.11933 5.74448 7.96286 6.03606 7.7331 6.2649C7.50335 6.49375 7.21062 6.6496 6.89193 6.71274C6.57325 6.77588 6.24293 6.74348 5.94273 6.61962C5.64254 6.49577 5.38596 6.28604 5.20544 6.01694C5.02492 5.74784 4.92857 5.43146 4.92857 5.10782C4.92857 4.67383 5.10166 4.25762 5.40975 3.95074C5.71785 3.64386 6.13572 3.47146 6.57143 3.47146Z" fill="#FFFFFE"/>
</svg>
